<?xml version="1.0" encoding="UTF-8"?>
<svg width="244px" height="42px" viewBox="0 0 244 42" version="1.1" xmlns="http://www.w3.org/2000/svg" xmlns:xlink="http://www.w3.org/1999/xlink">
    <!-- Generator: Sketch 46.2 (44496) - http://www.bohemiancoding.com/sketch -->
    <title>domino-logo</title>
    <desc>Created with Sketch.</desc>
    <defs></defs>
    <g id="Page-1" stroke="none" stroke-width="1" fill="none" fill-rule="evenodd">
        <g id="HOME" transform="translate(-838.000000, -4.000000)" fill-rule="nonzero">
            <g id="HEADER">
                <g id="domino-logo" transform="translate(838.000000, 3.786604)">
                    <g id="symbol" transform="translate(0.731258, 0.659808)">
                        <path d="M40.5683529,11.9301533 L29.3707664,0.733083115 C28.8983925,0.260709136 28.2701092,0 27.6015581,0 C26.9335232,0 26.30524,0.260709136 25.8323498,0.733083115 L16.4432071,10.1232583 L0.814081572,25.7523838 C-0.161641729,26.7281071 -0.161641729,28.3155934 0.814081572,29.2908005 L12.0106355,40.4899357 C12.4835257,40.9623097 13.111809,41.2230188 13.7803601,41.2230188 C14.4489113,41.2230188 15.0771945,40.9623097 15.5495684,40.4899357 L29.557651,26.4787556 L40.5678366,15.46857 C41.5435599,14.4933629 41.5435599,12.9058766 40.5682496,11.9301533" id="path5951" fill="#FFFFFF"></path>
                        <path d="M39.7761606,12.7262733 L28.5790904,1.52971937 C28.0390869,0.989715896 27.1640334,0.989715896 26.62403,1.52971937 L14.518866,13.6353996 L27.6694478,26.7875302 L39.7761606,14.6808175 C40.316164,14.1413302 40.316164,13.2662768 39.7761606,12.7262733 M29.9290991,15.9631966 C29.295137,16.5966424 28.4624166,16.9125909 27.6353749,16.9125909 C26.8067845,16.9121779 25.9756128,16.5966424 25.3416508,15.9631966 C24.7092375,15.3307834 24.3907077,14.4990954 24.3907077,13.670505 C24.3907077,12.8403658 24.7092375,12.0081616 25.3416508,11.3767809 C25.9756128,10.7443676 26.805752,10.4253216 27.6353749,10.4253216 C28.4624166,10.4253216 29.295137,10.7417863 29.9290991,11.3772971 C30.5604798,12.0081616 30.8800421,12.8403658 30.8795258,13.670505 C30.8799388,14.4980629 30.5604798,15.3302671 29.9290991,15.9631966" id="path5955" fill="#E31837"></path>
                        <path d="M1.60601784,26.5441136 C1.06601436,27.0841171 1.06601436,27.9591705 1.60601784,28.499174 L12.803088,39.6983092 C13.0725735,39.9677947 13.4262087,40.1025374 13.7803601,40.1025374 C14.1339953,40.1025374 14.4881467,39.9677947 14.7576322,39.6983092 L26.8571174,27.5957265 L13.7065355,14.4435959 L1.60601784,26.5441136 Z M11.3023327,29.769163 C10.6678544,30.398995 9.8366827,30.7154598 9.00809228,30.7154598 C8.17743683,30.7154598 7.34729764,30.3995113 6.71385188,29.769163 C6.07988986,29.137266 5.76549013,28.3055781 5.76549013,27.4769877 C5.76549013,26.6468485 6.08143863,25.816193 6.71436814,25.1806822 C7.34729764,24.5487852 8.17743683,24.2328367 9.00809228,24.2323205 C9.8366827,24.2327335 10.6694032,24.5487852 11.3023327,25.1811985 C11.9352622,25.816193 12.2506944,26.6468485 12.2496619,27.4754389 C12.2496619,28.3050618 11.9352622,29.1377823 11.3023327,29.769163 L11.3023327,29.769163 Z M16.2336073,25.31336 C16.8665368,24.6788817 17.6977085,24.3624169 18.5268151,24.3624169 C19.3564381,24.3624169 20.1870935,24.6788817 20.8189905,25.31336 C21.4545013,25.9457732 21.7714823,26.7748799 21.7714823,27.6070841 C21.7714823,28.4351583 21.4545013,29.2668462 20.8189905,29.8977107 C20.1870935,30.5285752 19.3564381,30.8465887 18.5268151,30.8476212 C17.6971922,30.8476212 16.8665368,30.5290914 16.2336073,29.8977107 C15.6001615,29.2647812 15.2831805,28.4336095 15.2831805,27.6070841 C15.2831805,26.7774612 15.6001615,25.9462895 16.2336073,25.31336 L16.2336073,25.31336 Z" id="path5959" fill="#006491"></path>
                        <polygon id="path5987" fill="#FFFFFF" points="18.1449924 40.1679491 18.1449924 39.5613486 17.9271325 39.5613486 17.9271325 39.4214433 18.5218591 39.4214433 18.5218591 39.5613486 18.3050317 39.5613486 18.3050317 40.1679491 18.1449924 40.1679491"></polygon>
                        <polygon id="path5991" fill="#FFFFFF" points="19.2721356 40.1679491 19.2721356 39.6294944 19.0620195 40.1679491 18.992325 40.1679491 18.7822089 39.6294944 18.7822089 40.1679491 18.6232022 40.1679491 18.6232022 39.4214433 18.8457084 39.4214433 19.0269141 39.8881385 19.2086361 39.4214433 19.4321749 39.4214433 19.4321749 40.1679491"></polygon>
                    </g>
                    <g id="text" transform="translate(51.512150, 10.962238)" fill="#FFFFFF">
                        <path d="M106.714286,10.8899861 C106.701408,10.3737914 107.369993,10.1462794 108.208138,10.1462794 C109.874771,10.1462794 110.823453,10.6216936 111.885891,11.3224735 C111.996428,11.3975954 112.131647,11.4212051 112.262574,11.3900403 C112.392427,11.3588754 112.502964,11.2752111 112.568427,11.1593088 L113.980719,8.69960362 C114.110572,8.4731648 114.033347,8.1855553 113.810085,8.05248224 C112.647842,7.35814139 110.946868,6.4631178 107.993504,6.4631178 C103.731947,6.4631178 101.451461,8.46994529 101.832437,11.3524793 C102.502095,16.4189139 110.381307,14.6825252 110.258966,16.4124748 C110.231063,16.811694 109.533503,17.1100352 108.32726,17.1100352 C106.767945,17.1100352 104.995068,16.3298408 103.877898,15.6365731 C103.767362,15.5678902 103.631069,15.5464268 103.506582,15.5807683 C103.378874,15.6129634 103.272631,15.6945243 103.207167,15.8082803 L101.574876,18.5298388 C101.451461,18.7509118 101.513662,19.0277896 101.724047,19.1683748 C103.291948,20.2265203 105.822482,20.9380318 108.020334,20.9380318 C112.286184,20.9380318 114.745889,19.106131 114.745889,16.0948166 C114.746747,10.5390166 106.748628,12.2625273 106.714286,10.8899431 M103.001222,2.31392576 L103.001222,2.31220869 C103.000363,2.31135015 103.000363,2.31049161 103.000363,2.30877454 C103.000363,2.29692675 103.000363,2.28404871 102.989631,2.27228677 L102.988773,2.27314531 C102.666822,0.835097798 101.10214,-0.203730551 99.5599954,0.115000874 C98.0028261,0.436951809 96.9811685,1.88680418 97.2838023,3.34524192 C97.5327777,4.54933841 98.6038012,5.38641085 99.8465318,5.46367907 C99.7671172,5.95519083 99.3324834,6.39626361 98.9686789,6.5990927 C98.7272157,6.73645843 98.8720936,6.99723869 98.8720936,6.99723869 L99.1929714,7.47157973 C99.285264,7.63148203 99.4258492,7.71304293 99.5921905,7.64436007 C102.785944,6.3361661 103.331114,3.61138802 102.998431,2.31392576 M91.6844317,6.39507883 C87.6589718,6.39507883 84.3933162,9.65966131 84.3933162,13.6872675 C84.3933162,17.7159469 87.6589718,20.9826757 91.6844317,20.9826757 C95.713111,20.9826757 98.980913,17.7159469 98.980913,13.6872675 C98.980913,9.65966131 95.713111,6.39507883 91.6844317,6.39507883 M91.6844317,16.0739971 C90.3107744,16.0739971 89.1978973,14.9568274 89.1978973,13.5810237 C89.1978973,12.2095127 90.3107744,11.0966356 91.6844317,11.0966356 C93.0613085,11.0966356 94.1741856,12.2095127 94.1741856,13.5810237 C94.1741856,14.9568274 93.0613085,16.0739971 91.6844317,16.0739971 M27.2989667,6.37291144 C23.2713605,6.37291144 20.0057048,9.63856708 20.0057048,13.6618806 C20.0057048,17.6937795 23.2713605,20.9583619 27.2989667,20.9583619 C31.327646,20.9583619 34.5922285,17.6937795 34.5922285,13.6618806 C34.5922285,9.63856708 31.327646,6.37291144 27.2989667,6.37291144 M27.2989667,16.0507565 C25.9242362,16.0507565 24.8113591,14.9378795 24.8113591,13.5588563 C24.8113591,12.185199 25.9242362,11.0744683 27.2989667,11.0744683 C28.6736972,11.0744683 29.7876474,12.185199 29.7876474,13.5588563 C29.7876474,14.9378795 28.6736972,16.0507565 27.2989667,16.0507565 M78.2583308,6.43665772 C75.5904307,6.43665772 74.138432,7.63538837 73.5117008,8.35226578 L73.5117008,7.26085211 C73.5117008,6.99363284 73.2959937,6.77899888 73.0298476,6.77899888 L68.8434123,6.77899888 C68.5783393,6.77899888 68.3637054,6.99363284 68.3637054,7.26085211 L68.3637054,20.1152798 C68.3637054,20.3792795 68.5783393,20.5949867 68.8434123,20.5949867 L73.0298476,20.5949867 C73.2959937,20.5949867 73.5117008,20.3792795 73.5117008,20.1152798 L73.5117008,12.0697259 C73.8454566,11.6919701 74.4689683,10.9836781 75.7127721,10.9836781 C77.0445758,10.9836781 77.7174532,11.6490434 77.7174532,12.955091 L77.7174532,20.1152798 C77.7174532,20.3792795 77.9320872,20.5949867 78.1993064,20.5949867 L82.3846686,20.5949867 C82.6508147,20.5949867 82.8654486,20.3792795 82.8654486,20.1152798 L82.8654486,10.7851417 C82.8654486,8.06143677 81.1440843,6.43665772 78.2583308,6.43665772 M63.7322223,0 C62.1396383,0 60.8411029,1.2963891 60.8411029,2.88789988 C60.8411029,4.48263018 62.1396383,5.77794611 63.7322223,5.77794611 C65.323733,5.77794611 66.6211953,4.48263018 66.6211953,2.88789988 C66.6211953,1.2963891 65.323733,0 63.7322223,0 M65.6990248,6.77996044 L61.5125895,6.77996044 C61.2453702,6.77996044 61.0307363,6.9945944 61.0307363,7.2607405 L61.0307363,20.1162413 C61.0307363,20.3791679 61.2453702,20.5948751 61.5125895,20.5948751 L65.6990248,20.5948751 C65.9651709,20.5948751 66.1819512,20.3791679 66.1819512,20.1162413 L66.1819512,7.2607405 C66.1819512,6.9945944 65.9651709,6.77996044 65.6990248,6.77996044 M54.672523,6.43665772 C52.4510615,6.43665772 50.6449168,7.65685176 49.8389663,8.86738728 C49.2487229,7.2544131 47.9083338,6.43665772 45.8628722,6.43665772 C43.598484,6.43665772 41.8835587,7.58172988 41.2847299,8.35226578 L41.2847299,7.26085211 C41.2847299,6.99363284 41.070096,6.77899888 40.8039499,6.77899888 L36.6175145,6.77899888 C36.3524416,6.77899888 36.1378076,6.99363284 36.1378076,7.26085211 L36.1378076,20.1152798 C36.1378076,20.3792795 36.3524416,20.5949867 36.6175145,20.5949867 L40.8039499,20.5949867 C41.070096,20.5949867 41.2847299,20.3792795 41.2847299,20.1152798 L41.2847299,12.0697259 L41.2847299,12.0680088 C41.5873638,11.7181555 42.2162413,10.9841074 43.3720451,10.9841074 C44.3861906,10.9841074 44.945312,11.5346435 44.945312,12.5294718 L44.945312,20.115709 C44.945312,20.3797088 45.1620923,20.5954159 45.4260921,20.5954159 L49.6125274,20.5954159 C49.8786735,20.5954159 50.0954538,20.3797088 50.0954538,20.115709 L50.0954538,12.0701552 C50.3970145,11.7181555 51.0269652,10.9841074 52.2095983,10.9841074 C53.2108657,10.9841074 53.7850115,11.5475215 53.7850115,12.5294718 L53.7850115,20.115709 C53.7850115,20.3797088 53.9985723,20.5954159 54.2657916,20.5954159 L58.4511538,20.5954159 C58.7162267,20.5954159 58.9308607,20.3797088 58.9308607,20.115709 L58.9308607,10.5848882 C58.9308607,7.90947593 57.4198376,6.43708699 54.6703766,6.43708699 M8.52955343,1.51585661 L0.481853232,1.51585661 C0.214633956,1.51585661 0,1.73049057 0,1.99878301 L0,20.1160267 C0,20.3789533 0.214633956,20.594669 0.481853232,20.594669 L8.55530951,20.594669 C14.8977429,20.594669 18.9983247,16.8460784 18.9983247,11.0402384 C18.9983247,5.25369838 14.8880844,1.51585661 8.52955343,1.51585661 M8.52955343,15.5636491 L5.78116562,15.5636491 L5.78116562,6.54902289 L8.55530951,6.54902289 C11.4206728,6.54902289 13.1323786,8.2285336 13.1323786,11.0402384 C13.1323786,13.287456 11.5515995,15.5636491 8.52955343,15.5636491" id="path5947"></path>
                        <path d="M130.462031,10.7294399 L129.410325,10.7294399 L129.410325,6.39276078 L130.495299,6.39276078 C132.644858,6.39276078 133.258711,7.44875985 133.258711,8.41890533 C133.258711,9.61119696 132.725346,10.7294399 130.462031,10.7294399 L130.462031,10.7294399 Z M135.849343,2.94037359 C134.087198,1.72017955 132.274615,1.43257005 129.427495,1.43257005 L124.08311,1.4530032 C123.833061,1.4530032 123.629159,1.65475912 123.629159,1.90695402 L123.629159,20.0649867 C123.629159,20.3161085 123.833061,20.5200107 124.084183,20.5200107 L128.432667,20.5200107 L128.954227,20.5200107 C129.204276,20.5200107 129.410325,20.3171816 129.410325,20.0639136 L129.410325,19.5112311 L129.410325,15.4997225 C131.906517,15.4997225 134.438125,15.4749967 136.314026,13.8502605 C137.623293,12.7202127 138.603097,10.8947509 138.603097,8.43075313 C138.603097,6.51943775 137.627586,4.17026909 135.849343,2.94041652 L135.849343,2.94037359 Z M142.641864,0 C141.055719,0 139.761476,1.28995008 139.761476,2.87716819 C139.761476,4.46653263 141.055719,5.75648271 142.641864,5.75648271 C144.228009,5.75648271 145.520105,4.46653263 145.520105,2.87716819 C145.520105,1.28995008 144.228009,0 142.641864,0 L142.641864,0 Z M144.72875,6.75356046 L140.555193,6.75356046 C140.291193,6.75356046 140.075486,6.96926759 140.075486,7.23219419 L140.075486,20.0436951 C140.075486,20.3066216 140.291193,20.5201824 140.555193,20.5201824 L144.72875,20.5201824 C144.993823,20.5201824 145.207384,20.3066216 145.207384,20.0436951 L145.207384,7.23219419 C145.207384,6.96926759 144.993823,6.75356046 144.72875,6.75356046 L144.72875,6.75356046 Z M181.382108,16.2619563 C179.861427,16.2619563 178.631574,15.0278111 178.631574,13.5049832 C178.631574,11.9885943 179.861427,10.7587417 181.382108,10.7587417 C182.90279,10.7587417 184.133716,11.9885943 184.133716,13.5049832 C184.133716,15.0278111 182.90279,16.2619563 181.382108,16.2619563 L181.382108,16.2619563 Z M188.798785,6.71825747 L184.614496,6.71825747 C184.351569,6.71825747 184.133716,6.93289143 184.133716,7.19903753 L184.133716,8.01142706 C183.009034,6.97474505 181.566694,6.35123341 179.995573,6.35123341 C176.401527,6.35123341 173.488945,9.61259637 173.488945,13.6359099 C173.488945,17.6635161 176.401527,20.9216595 179.995573,20.9216595 C181.566694,20.9216595 183.009034,20.3002942 184.133716,19.2646854 L184.133716,20.0405872 C184.133716,20.3056601 184.351569,20.520294 184.614496,20.520294 L188.798785,20.520294 C189.062785,20.520294 189.279565,20.3056601 189.279565,20.0405872 L189.279565,7.19903753 C189.279565,6.93289143 189.062785,6.71825747 188.798785,6.71825747 L188.798785,6.71825747 Z M160.675194,20.0398316 C160.675194,20.3059777 160.888755,20.5195385 161.157048,20.5195385 L172.165623,20.5195385 C172.446794,20.5195385 172.64533,20.3059777 172.64533,20.0398316 L172.64533,16.5541762 C172.64533,16.2923228 172.431769,16.0755425 172.163477,16.0755425 L167.555286,16.0755425 C167.555286,16.0755425 171.506697,11.5070587 172.225721,10.6828643 C172.422111,10.4564255 172.674306,10.2224745 172.674306,9.6247189 C172.674306,9.50345072 172.675164,7.23369663 172.675164,7.23369663 C172.675164,6.96969686 172.461604,6.75398973 172.194384,6.75398973 L161.156833,6.75398973 C160.888541,6.75398973 160.67498,6.96755052 160.67498,7.23369663 L160.67498,10.1709623 L160.67498,10.7204252 C160.67498,10.984425 160.888541,11.199059 161.156833,11.199059 L161.740637,11.199059 L165.884146,11.199059 C165.884146,11.199059 161.049516,16.7291029 160.964736,16.8278345 C160.769419,17.0532001 160.67498,17.3697852 160.67498,17.7078337 L160.67498,20.0398316 L160.675194,20.0398316 Z M146.949997,20.0398316 C146.949997,20.3059777 147.164631,20.5195385 147.429704,20.5195385 L158.442572,20.5195385 C158.724816,20.5195385 158.925498,20.3059777 158.925498,20.0398316 L158.925498,16.5541762 C158.925498,16.2923228 158.709791,16.0755425 158.442572,16.0755425 L153.783942,16.0755425 C153.783942,16.0755425 157.789012,11.5102782 158.501596,10.6828643 C158.697986,10.4553523 158.954474,10.2224745 158.954474,9.6247189 L158.954474,7.23369663 C158.954474,6.96969686 158.738767,6.75398973 158.471548,6.75398973 L147.429704,6.75398973 C147.165704,6.75398973 146.949997,6.96755052 146.949997,7.23369663 L146.949997,10.1709623 L146.949997,10.7204252 C146.949997,10.984425 147.164631,11.199059 147.429704,11.199059 L148.017801,11.199059 L152.162382,11.199059 C152.162382,11.199059 147.324533,16.7291029 147.240826,16.8278345 C147.044436,17.0532001 146.949997,17.3697852 146.949997,17.7078337 L146.949997,20.0398316 L146.949997,20.0398316 Z" id="path5983"></path>
                        <path d="M190.780612,8.95666642 C190.203246,8.95666642 189.736418,8.48876439 189.736418,7.91248081 C189.736418,7.3308142 190.203246,6.86828661 190.780612,6.86828661 C191.36227,6.86828661 191.824806,7.33082278 191.824806,7.91248081 C191.824806,8.48877298 191.36227,8.95666642 190.780612,8.95666642 L190.780612,8.95666642 Z M190.780612,7.02603398 C190.288027,7.02603398 189.8931,7.41452144 189.8931,7.91248081 C189.8931,8.3996913 190.288027,8.79891905 190.780612,8.79891905 C191.273197,8.79891905 191.66705,8.39969989 191.66705,7.91248081 C191.66705,7.41452144 191.273197,7.02603398 190.780612,7.02603398 L190.780612,7.02603398 Z M191.066075,8.5134473 L190.755929,8.04017942 L190.548807,8.04017942 L190.548807,8.5134473 L190.381393,8.5134473 L190.381393,7.31578982 L190.869685,7.31578982 C191.071441,7.31578982 191.258172,7.45852999 191.258172,7.67960296 C191.258172,7.94682224 191.022075,8.03589533 190.953392,8.03589533 L191.273197,8.51345588 L191.066075,8.51345588 L191.066075,8.5134473 Z M190.869685,7.46389584 L190.548807,7.46389584 L190.548807,7.88672473 L190.869685,7.88672473 C190.972709,7.88672473 191.086465,7.80413358 191.086465,7.67960296 C191.086465,7.54759449 190.972709,7.46389584 190.869685,7.46389584 L190.869685,7.46389584 Z" id="path5995"></path>
                    </g>
                </g>
            </g>
        </g>
    </g>
</svg>