<?xml version="1.0" encoding="UTF-8"?>
<svg width="143px" height="145px" viewBox="0 0 143 145" version="1.1" xmlns="http://www.w3.org/2000/svg" xmlns:xlink="http://www.w3.org/1999/xlink">
    <!-- Generator: Sketch 46.2 (44496) - http://www.bohemiancoding.com/sketch -->
    <title>icon-maintenance</title>
    <desc>Created with Sketch.</desc>
    <defs></defs>
    <g id="Page-1" stroke="none" stroke-width="1" fill="none" fill-rule="evenodd">
        <g id="MAINTENANCE" transform="translate(-903.000000, -295.000000)" fill="#E61837">
            <g id="Popup-Content" transform="translate(523.000000, 226.000000)">
                <g id="icon-maintenance" transform="translate(380.101122, 69.082591)">
                    <path d="M43.1140255,114.064471 C35.8439131,114.064471 29.9181975,108.168383 29.9181975,100.900123 C29.9181975,93.5985302 35.8439131,87.695036 43.1140255,87.695036 C50.3859897,87.695036 56.2580035,93.5985302 56.2580035,100.900123 C56.2580035,108.168383 50.3859897,114.064471 43.1140255,114.064471 M69.4853118,83.0489046 L77.8627923,74.6732759 L69.3093922,66.1217275 L60.9337635,74.4973562 C57.4468502,72.1104039 53.4581029,70.4697214 49.1341822,69.6382694 L49.1341822,57.7775792 L37.0642402,57.7775792 L37.0642402,69.6382694 C32.7792071,70.4697214 28.7812008,72.1104039 25.264659,74.4973562 L16.8964374,66.1217275 L8.34674082,74.6732759 L16.7131106,83.0489046 C14.3650458,86.5358179 12.6928829,90.5245652 11.8614309,94.8503376 L0.000740714454,94.8503376 L0.000740714454,106.948056 L11.8614309,106.948056 C12.6928829,111.234941 14.3650458,115.22554 16.7131106,118.740231 L8.34674082,127.117711 L16.8964374,135.637779 L25.264659,127.269557 C28.7589794,129.649103 32.7792071,131.289785 37.0642402,132.121237 L37.0642402,143.981927 L49.1341822,143.981927 L49.1341822,132.121237 C53.4284743,131.289785 57.4190734,129.617622 60.9337635,127.269557 L69.3093922,135.60815 L77.8627923,127.086231 L69.4853118,118.719861 C71.8722642,115.22554 73.5129467,111.205313 74.3147701,106.918428 L86.2069406,106.918428 L86.2069406,94.8503376 L74.3443987,94.8503376 C73.5129467,90.5245652 71.8722642,86.5358179 69.4853118,83.0489046" id="Fill-1"></path>
                    <path d="M135.522598,105.009792 C133.761549,106.763433 130.90054,106.763433 129.176527,105.009792 C127.413626,103.248743 127.413626,100.448843 129.146898,98.6952012 C130.90054,96.9323008 133.761549,96.9323008 135.522598,98.6952012 C137.248463,100.419214 137.278091,103.248743 135.522598,105.009792 M139.339129,94.5527556 L139.420608,94.4897948 L80.6301015,35.4030029 L80.5467711,7.59658226 L52.1162986,0.00055553584 L49.0793694,3.03563301 L64.2140174,18.1165793 L49.4923177,32.8697594 L34.3576696,17.7888131 L31.315185,20.8016692 L38.9426921,49.1932542 L65.9991393,49.2858435 L65.8232196,49.4302828 L124.974824,108.907802 L125.065562,108.824471 C128.995052,112.691001 135.370751,112.691001 139.24654,108.763362 C143.183437,104.857945 143.183437,98.5100225 139.339129,94.5527556" id="Fill-3"></path>
                </g>
            </g>
        </g>
    </g>
</svg>