<?xml version="1.0" encoding="UTF-8"?>
<svg width="73px" height="37px" viewBox="0 0 73 37" version="1.1" xmlns="http://www.w3.org/2000/svg" xmlns:xlink="http://www.w3.org/1999/xlink">
    <!-- Generator: Sketch 46.2 (44496) - http://www.bohemiancoding.com/sketch -->
    <title>icon-thickness-thick</title>
    <desc>Created with Sketch.</desc>
    <defs>
        <path d="M36.1718344,36.6660028 C56.0540853,36.6660028 72.1718344,30.7278847 72.1718344,23.4028449 C72.1718344,19.9564691 74.2470872,7.88834135 66.0304208,7.70984783 C52.3504644,7.41267335 19.1221217,7 8.59431918,7 C-1.93348333,7 0.171834355,16.077805 0.171834355,23.4028449 C0.171834355,30.7278847 16.2895834,36.6660028 36.1718344,36.6660028 Z" id="path-1"></path>
        <ellipse id="path-2" cx="36" cy="13.2631579" rx="36" ry="13.2631579"></ellipse>
    </defs>
    <g id="Page-1" stroke="none" stroke-width="1" fill="none" fill-rule="evenodd">
        <g id="POPUP-SELECT" transform="translate(-924.000000, -514.000000)">
            <g id="Popup-Content" transform="translate(413.000000, 41.000000)">
                <g id="Group-10-Copy-2" transform="translate(30.000000, 414.000000)">
                    <g id="Group-5-Copy-2" transform="translate(428.000000, 39.000000)">
                        <g id="Group" transform="translate(53.000000, 20.000000)">
                            <g id="icon-thickness-thick">
                                <g id="Oval-2-Copy">
                                    <use fill="#FFFFFF" fill-rule="evenodd" xlink:href="#path-1"></use>
                                    <path stroke="#0074AF" stroke-width="2" d="M36.1718344,35.6660028 C55.5305698,35.6660028 71.1718344,29.9034316 71.1718344,23.4028449 C71.1718344,23.1147129 71.1844304,22.7729556 71.2098652,22.3104952 C71.2197149,22.131405 71.2309698,21.9422644 71.2476888,21.671272 C71.26872,21.3324661 71.2801287,21.1482194 71.2905252,20.9761853 C71.4142751,18.92846 71.4457313,17.5242021 71.3552861,16.0723982 C71.059617,11.3263904 69.4964055,8.78537655 66.0087026,8.70961196 C52.2675087,8.41110719 19.0629633,8 8.59431918,8 C4.86793078,8 2.83670836,9.14980301 1.84405452,11.390834 C1.03661038,13.2137327 0.897703656,15.3264046 1.06813268,19.7158925 C1.07657519,19.9320377 1.07657519,19.9320377 1.08513617,20.1485598 C1.15036478,21.7980193 1.17183435,22.5138426 1.17183435,23.4028449 C1.17183435,29.9034316 16.8130989,35.6660028 36.1718344,35.6660028 Z"></path>
                                </g>
                                <g id="Oval-2">
                                    <use fill="#FFFFFF" fill-rule="evenodd" xlink:href="#path-2"></use>
                                    <ellipse stroke="#0074AF" stroke-width="2" cx="36" cy="13.2631579" rx="35" ry="12.2631579"></ellipse>
                                </g>
                            </g>
                        </g>
                    </g>
                </g>
            </g>
        </g>
    </g>
</svg>