<?xml version="1.0" encoding="UTF-8"?>
<svg width="73px" height="34px" viewBox="0 0 73 34" version="1.1" xmlns="http://www.w3.org/2000/svg" xmlns:xlink="http://www.w3.org/1999/xlink">
    <!-- Generator: Sketch 46.2 (44496) - http://www.bohemiancoding.com/sketch -->
    <title>icon-thickness-med</title>
    <desc>Created with Sketch.</desc>
    <defs>
        <path d="M36.1718344,33.5263158 C56.0540853,33.5263158 72.1718344,28.2166556 72.1718344,21.6668578 C72.1718344,18.5852275 74.2470872,7.79432418 66.0304208,7.63472143 C52.3504644,7.36899826 19.1221217,7 8.59431918,7 C-1.93348333,7 0.171834355,15.1170599 0.171834355,21.6668578 C0.171834355,28.2166556 16.2895834,33.5263158 36.1718344,33.5263158 Z" id="path-1"></path>
        <ellipse id="path-2" cx="36" cy="13.2631579" rx="36" ry="13.2631579"></ellipse>
    </defs>
    <g id="Page-1" stroke="none" stroke-width="1" fill="none" fill-rule="evenodd">
        <g id="POPUP-SELECT" transform="translate(-710.000000, -516.000000)">
            <g id="Popup-Content" transform="translate(413.000000, 41.000000)">
                <g id="Group-10-Copy-2" transform="translate(30.000000, 414.000000)">
                    <g id="Group-5-Copy" transform="translate(214.000000, 39.000000)">
                        <g id="Group" transform="translate(53.000000, 22.000000)">
                            <g id="icon-thickness-med">
                                <g id="Oval-2-Copy">
                                    <use fill="#FFFFFF" fill-rule="evenodd" xlink:href="#path-1"></use>
                                    <path stroke="#0074AF" stroke-width="2" d="M36.1718344,32.5263158 C55.5008627,32.5263158 71.1718344,27.3638371 71.1718344,21.6668578 C71.1718344,21.4042381 71.1845769,21.095095 71.2102425,20.6778277 C71.2201293,20.5170888 71.2314126,20.3475385 71.2481629,20.1047722 C71.2692019,19.8017106 71.2805968,19.6371634 71.2909803,19.4835292 C71.4141597,17.660964 71.4454249,16.4129491 71.3557695,15.1261317 C71.0635518,10.9319539 69.5299375,8.70288562 66.0110002,8.63453283 C52.2690857,8.36760617 19.0637897,8 8.59431918,8 C4.84591897,8 2.80381532,9.03362177 1.82581454,11.0078945 C1.03613142,12.6020137 0.898897874,14.4683374 1.06794417,18.3614222 C1.07638098,18.5545612 1.07638098,18.5545612 1.08494064,18.7481381 C1.15030202,20.22603 1.17183435,20.8679656 1.17183435,21.6668578 C1.17183435,27.3638371 16.842806,32.5263158 36.1718344,32.5263158 Z"></path>
                                </g>
                                <g id="Oval-2">
                                    <use fill="#FFFFFF" fill-rule="evenodd" xlink:href="#path-2"></use>
                                    <ellipse stroke="#0074AF" stroke-width="2" cx="36" cy="13.2631579" rx="35" ry="12.2631579"></ellipse>
                                </g>
                            </g>
                        </g>
                    </g>
                </g>
            </g>
        </g>
    </g>
</svg>