<?xml version="1.0" encoding="UTF-8"?>
<svg width="35px" height="35px" viewBox="0 0 35 35" version="1.1" xmlns="http://www.w3.org/2000/svg" xmlns:xlink="http://www.w3.org/1999/xlink">
    <!-- Generator: Sketch 46.2 (44496) - http://www.bohemiancoding.com/sketch -->
    <title>info-icon</title>
    <desc>Created with Sketch.</desc>
    <defs></defs>
    <g id="Page-1" stroke="none" stroke-width="1" fill="none" fill-rule="evenodd">
        <g id="HOME" transform="translate(-30.000000, -279.000000)" fill="#FFFFFF">
            <g id="PRODUCTS-PANEL" transform="translate(0.000000, 50.000000)">
                <g id="THUMBS" transform="translate(20.000000, 219.000000)">
                    <g id="Group-8">
                        <g id="info-icon" transform="translate(10.000000, 10.000000)">
                            <path d="M21.4998835,24.4444444 L21.2307782,25.5255255 C20.4234582,25.8378394 19.7792429,26.0760753 19.2981128,26.2402402 C18.8169827,26.4044052 18.2583909,26.4864865 17.6223206,26.4864865 C16.6437509,26.4864865 15.8833322,26.2522546 15.3410415,25.7837838 C14.7987508,25.315313 14.5276095,24.7207243 14.5276095,24 C14.5276095,23.7197183 14.5479961,23.4334349 14.5887698,23.1411411 C14.6295435,22.8488474 14.6947805,22.5185204 14.7844828,22.1501502 L15.7875116,18.6426426 C15.8772139,18.3063046 15.9526441,17.9879895 16.0138048,17.6876877 C16.0749654,17.3873859 16.1055452,17.1131144 16.1055452,16.8648649 C16.1055452,16.4164142 16.011767,16.104105 15.8242078,15.9279279 C15.6366486,15.7517509 15.2778451,15.6636637 14.7477866,15.6636637 C14.4868347,15.6636637 14.2197707,15.7037033 13.9465867,15.7837838 C13.6734026,15.8638643 13.4389572,15.9399396 13.2432432,16.012012 L13.5123486,14.9309309 C14.1728831,14.6666653 14.8048665,14.4404414 15.4083178,14.2522523 C16.0117691,14.0640631 16.5825928,13.96997 17.1208062,13.96997 C18.0912211,13.96997 18.8394079,14.2001979 19.3653891,14.6606607 C19.8913703,15.1211234 20.1543569,15.719716 20.1543569,16.4564565 C20.1543569,16.6086094 20.136009,16.876875 20.0993127,17.2612613 C20.0626163,17.6456476 19.9953407,17.9979964 19.8974837,18.3183183 L18.8944548,21.8138138 C18.8129073,22.0940955 18.7395157,22.4144126 18.6742777,22.7747748 C18.6090397,23.1351369 18.5764212,23.4074065 18.5764212,23.5915916 C18.5764212,24.0560584 18.6824314,24.3723715 18.8944548,24.5405405 C19.1064782,24.7087095 19.4734363,24.7927928 19.9953402,24.7927928 C20.2399826,24.7927928 20.5172398,24.7507512 20.8271202,24.6666667 C21.1370006,24.5825822 21.3612528,24.5085088 21.4998835,24.4444444 Z M21.7567568,9.77777778 C21.7567568,10.3863894 21.5223113,10.9049028 21.0534133,11.3333333 C20.5845154,11.7617639 20.0198076,11.975976 19.3592731,11.975976 C18.6987385,11.975976 18.1319921,11.7617639 17.6590168,11.3333333 C17.1860414,10.9049028 16.9495573,10.3863894 16.9495573,9.77777778 C16.9495573,9.16916613 17.1860414,8.64865081 17.6590168,8.21621622 C18.1319921,7.78378162 18.6987385,7.56756757 19.3592731,7.56756757 C20.0198076,7.56756757 20.5845154,7.78378162 21.0534133,8.21621622 C21.5223113,8.64865081 21.7567568,9.16916613 21.7567568,9.77777778 Z" id="i"></path>
                            <path d="M17.5,32.5862069 C25.831882,32.5862069 32.5862069,25.831882 32.5862069,17.5 C32.5862069,9.168118 25.831882,2.4137931 17.5,2.4137931 C9.168118,2.4137931 2.4137931,9.168118 2.4137931,17.5 C2.4137931,25.831882 9.168118,32.5862069 17.5,32.5862069 Z M17.5,35 C7.83501688,35 0,27.1649831 0,17.5 C0,7.83501688 7.83501688,0 17.5,0 C27.1649831,0 35,7.83501688 35,17.5 C35,27.1649831 27.1649831,35 17.5,35 Z" id="Oval" fill-rule="nonzero"></path>
                        </g>
                    </g>
                </g>
            </g>
        </g>
    </g>
</svg>