<?xml version="1.0" encoding="utf-8"?>
<!-- Generator: Adobe Illustrator 15.0.0, SVG Export Plug-In . SVG Version: 6.00 Build 0)  -->
<!DOCTYPE svg PUBLIC "-//W3C//DTD SVG 1.1//EN" "http://www.w3.org/Graphics/SVG/1.1/DTD/svg11.dtd">
<svg version="1.1" id="Layer_1" xmlns="http://www.w3.org/2000/svg" xmlns:xlink="http://www.w3.org/1999/xlink" x="0px" y="0px"
	 width="700px" height="632px" viewBox="0 0 700 632" enable-background="new 0 0 700 632" xml:space="preserve">
<g display="none">
	<path display="inline" d="M217.02,56.1c35.6-18.02,75.14-27.91,114.97-29.55c0.03,90.15,0,180.3,0.01,270.45
		c-90.06,0-180.11,0.01-270.17-0.01c1.74-48.83,16.48-97.19,42.6-138.51C131.61,114.87,171.08,79.07,217.02,56.1z"/>
	<path display="inline" d="M353.01,26.56c44.84,1.56,89.31,13.93,128.3,36.17c34.58,19.51,64.92,46.48,88.46,78.45
		c33.18,44.94,52.41,99.97,54.31,155.81C533.72,297.01,443.36,297,353,297C353,206.85,352.99,116.7,353.01,26.56z"/>
	<path display="inline" d="M61.8,317.01C151.87,316.99,241.93,317,332,317c0,90.5,0,181,0,271.49
		c-41.57-1.47-82.75-12.49-119.56-31.83c-30.7-16.05-58.37-37.86-81.13-63.96C88.7,444.56,63.7,381.27,61.8,317.01z"/>
	<path display="inline" d="M353,317c90.37,0,180.74-0.01,271.1,0.01c-1.33,40.32-11.35,80.43-29.6,116.44
		c-30.41,61.18-84.06,110.38-147.63,135.4c-29.83,11.97-61.76,18.55-93.87,19.74C353.01,498.06,352.99,407.53,353,317z"/>
</g>
<g display="none">
	<g display="inline">
		<path fill="#FFFFFF" stroke="#017DB4" stroke-width="10" stroke-linejoin="round" stroke-miterlimit="10" d="M359.5,596.46
			c69.765-2.313,133.086-29.99,181.014-74.098L359.5,341.347V596.46z"/>
		<g>
			<path opacity="0.25" fill="#017DB4" d="M654.934,295.5c-2.578-69.922-30.775-133.304-75.509-181.077L398.346,295.501
				L654.934,295.5z"/>
			<path fill="#017DB4" d="M398.346,300.501c-2.022,0-3.846-1.218-4.62-3.086c-0.774-1.869-0.346-4.019,1.084-5.449l181.079-181.077
				c0.958-0.958,2.257-1.492,3.618-1.464c1.354,0.022,2.642,0.593,3.568,1.582c47.031,50.227,74.326,115.683,76.856,184.31
				c0.05,1.357-0.454,2.676-1.396,3.654c-0.942,0.978-2.242,1.53-3.6,1.53L398.346,300.501z M579.272,121.647L410.417,290.501
				l239.28,0C646.203,227.894,621.348,168.304,579.272,121.647z"/>
		</g>
		<path fill="#FFFFFF" stroke="#017DB4" stroke-width="10" stroke-linejoin="round" stroke-miterlimit="10" d="M374.347,326.499
			l181.078,181.077c44.734-47.773,72.932-111.154,75.51-181.076L374.347,326.499z"/>
		<path fill="#FFFFFF" stroke="#017DB4" stroke-width="10" stroke-linejoin="round" stroke-miterlimit="10" d="M338.5,35.615
			c-69.479,2.792-132.458,30.744-180.051,74.986l180.052,180.053L338.5,35.615z"/>
		<path fill="#FFFFFF" stroke="#017DB4" stroke-width="10" stroke-linejoin="round" stroke-miterlimit="10" d="M158.45,521.399
			c47.593,44.242,110.572,72.194,180.051,74.985l0.001-255.037L158.45,521.399z"/>
		<path fill="#FFFFFF" stroke="#017DB4" stroke-width="10" stroke-linejoin="round" stroke-miterlimit="10" d="M143.61,125.459
			C99.435,173.11,71.625,236.082,69.066,305.5l254.588,0.001L143.61,125.459z"/>
		<path fill="#FFFFFF" stroke="#017DB4" stroke-width="10" stroke-linejoin="round" stroke-miterlimit="10" d="M540.514,109.638
			C492.586,65.53,429.265,37.853,359.5,35.54l-0.001,255.114L540.514,109.638z"/>
		<path fill="#FFFFFF" stroke="#017DB4" stroke-width="10" stroke-linejoin="round" stroke-miterlimit="10" d="M69.066,326.5
			c2.559,69.418,30.37,132.39,74.545,180.042L323.653,326.5H69.066z"/>
	</g>
	<g display="inline">
		<polygon fill="#020202" points="359.499,305.501 374.346,305.501 555.425,124.424 570.677,109.171 555.829,94.323 
			540.514,109.638 359.499,290.654 		"/>
		<polygon fill="#020202" points="341.577,308.576 349,315.999 349,305.501 323.653,305.501 69.066,305.5 46,305.5 46,326.5 
			69.066,326.5 323.653,326.5 		"/>
		<polygon fill="#020202" points="338.501,316 349,316 349,315.999 341.577,308.576 323.653,326.5 143.61,506.541 127.323,522.829 
			142.171,537.677 158.45,521.399 338.501,341.347 		"/>
		<polygon fill="#020202" points="341.576,323.423 349,316 349,316 338.501,316 338.501,341.347 338.5,596.384 338.5,619 359.5,619 
			359.5,596.46 359.5,341.347 		"/>
		<polygon fill="#020202" points="349,326.499 349,316 341.576,323.423 359.5,341.347 540.514,522.362 555.829,537.677 
			570.677,522.829 555.424,507.576 374.347,326.499 		"/>
		<polygon fill="#020202" points="359.499,305.501 353.348,305.501 349,305.501 349,305.501 349,315.999 349,316 349,316 
			349,326.499 374.347,326.499 630.934,326.5 652,326.5 652,305.5 630.934,305.5 374.346,305.501 		"/>
	</g>
</g>
<g>
	<polygon fill="#FFFFFF" points="349,316 349,316 349,316 349,316 349,316 	"/>
	<path fill="#FFFFFF" stroke="#017DB4" stroke-width="10" stroke-linejoin="round" stroke-miterlimit="10" d="M327.696,300.782
		l-1.804-4.957L237.796,53.783C150.974,89.039,88.228,165.375,68.911,255.152l253.608,44.717L327.696,300.782z"/>
	<path fill="#FFFFFF" stroke="#017DB4" stroke-width="10" stroke-linejoin="round" stroke-miterlimit="10" d="M324.144,321.479
		l-5.195-0.916l-253.68-44.731c-3.887,28.261-3.524,57.593,1.696,87.197c11.3,64.083,43.481,119.233,88.303,159.709l165.497-197.231
		L324.144,321.479z"/>
	<path fill="#FFFFFF" stroke="#017DB4" stroke-width="10" stroke-linejoin="round" stroke-miterlimit="10" d="M340.291,334.904
		l-3.39,4.04L171.358,536.227c60.521,46.988,139.906,69.212,221.306,54.859c12.875-2.271,25.38-5.402,37.488-9.291l-88.064-241.951
		L340.291,334.904z"/>
	<path fill="#FFFFFF" stroke="#017DB4" stroke-width="10" stroke-linejoin="round" stroke-miterlimit="10" d="M359.991,327.633
		l1.804,4.956l88.095,242.043c86.823-35.256,149.569-111.592,168.887-201.369l-253.608-44.717L359.991,327.633z"/>
	<path fill="#FFFFFF" stroke="#017DB4" stroke-width="10" stroke-linejoin="round" stroke-miterlimit="10" d="M347.396,293.511
		l3.391-4.041L516.328,92.188c-60.521-46.988-139.906-69.212-221.306-54.859c-12.875,2.27-25.38,5.402-37.488,9.291l88.064,241.951
		L347.396,293.511z"/>
	<g>
		<path opacity="0.25" fill="#017DB4" d="M386.058,300.368l5.203,0.869l254.073,42.444c3.632-28.295,3.005-57.623-2.481-87.179
			c-11.876-63.978-44.554-118.836-89.739-158.906L389.401,296.311L386.058,300.368z"/>
		<path fill="#017DB4" d="M646.246,348.597c-0.568,0.105-1.155,0.112-1.737,0.015L385.234,305.3
			c-1.762-0.294-3.233-1.506-3.859-3.18c-0.626-1.672-0.313-3.553,0.824-4.932L549.254,94.417c0.863-1.048,2.113-1.7,3.469-1.806
			c1.354-0.106,2.692,0.344,3.707,1.244c48.016,42.582,79.601,98.508,91.337,161.735c5.458,29.405,6.308,59.257,2.524,88.728
			c-0.173,1.347-0.887,2.567-1.978,3.377C647.696,348.154,646.987,348.459,646.246,348.597z M395.424,296.863l245.563,41.023
			c2.922-26.76,1.899-53.805-3.051-80.471c-11.01-59.312-40.115-111.964-84.291-152.602L395.424,296.863z"/>
	</g>
	<path display="none" fill="#020202" d="M623.636,404.7l-6.958-2.533L374.62,314.064l-4.956-1.804l4.027-3.379l197.231-165.498
		l5.709-4.791l2.271-21.287l-3.953-4.712l-11.814,9.914l-5.717,4.797l-197.284,165.54l-4.041,3.39l-0.913-5.177L310.468,37.49
		l-1.292-7.328l-17.3-12.61l-6.057,1.068l2.679,15.188l1.289,7.309l44.727,253.663l0.916,5.194l-4.94-1.798l-241.99-88.076
		l-6.954-2.531l-19.57,8.677l-2.104,5.779l14.492,5.274l6.958,2.533l242.059,88.103l4.957,1.804l-4.027,3.379L127.078,488.617
		l-5.709,4.791l-2.271,21.287l3.954,4.711l11.814-9.914l5.717-4.797l197.285-165.54l4.04-3.39l0.913,5.177l44.711,253.567
		l1.292,7.328l17.3,12.61l6.057-1.068l-2.679-15.188l-1.289-7.31l-44.726-253.663l-0.916-5.194l4.94,1.798l241.99,88.077
		l6.954,2.531l19.57-8.677l2.104-5.779L623.636,404.7z M349,316L349,316L349,316L349,316L349,316L349,316z"/>
</g>
</svg>
