<?xml version="1.0" encoding="utf-8"?>
<!-- Generator: Adobe Illustrator 15.0.0, SVG Export Plug-In . SVG Version: 6.00 Build 0)  -->
<!DOCTYPE svg PUBLIC "-//W3C//DTD SVG 1.1//EN" "http://www.w3.org/Graphics/SVG/1.1/DTD/svg11.dtd">
<svg version="1.1" id="Layer_1" xmlns="http://www.w3.org/2000/svg" xmlns:xlink="http://www.w3.org/1999/xlink" x="0px" y="0px"
	 width="700px" height="632px" viewBox="0 0 700 632" enable-background="new 0 0 700 632" xml:space="preserve">
<g>
	
		<path fill="#FFFFFF" stroke="#017DB4" stroke-width="10" stroke-linecap="round" stroke-linejoin="round" stroke-miterlimit="10" d="
		M226.168,64.53c35.6-18.02,75.14-27.91,114.97-29.55c0.03,90.15,0,180.3,0.01,270.45c-90.06,0-180.11,0.01-270.17-0.01
		c1.74-48.83,16.48-97.19,42.6-138.51C140.758,123.3,180.228,87.5,226.168,64.53z"/>
	<g>
		<path opacity="0.25" fill="#017DB4" d="M372.167,21.99c44.84,1.56,89.31,13.93,128.3,36.17c34.58,19.51,64.92,46.48,88.46,78.45
			c33.18,44.94,52.41,99.97,54.31,155.81c-90.36,0.02-180.72,0.01-271.08,0.01C372.158,202.28,372.148,112.13,372.167,21.99z"/>
		<path fill="#017DB4" d="M507.698,297.433l-135.54-0.002c-2.761,0-5-2.239-5-5l-0.001-67.691
			c-0.002-67.586-0.004-135.17,0.011-202.75c0-1.356,0.551-2.654,1.527-3.596c0.975-0.942,2.296-1.455,3.647-1.4
			c46.014,1.601,91.176,14.334,130.604,36.824c34.943,19.715,66.074,47.323,90.009,79.829
			c33.721,45.672,53.355,102.001,55.281,158.604c0.046,1.354-0.46,2.67-1.401,3.645c-0.942,0.975-2.239,1.525-3.595,1.525
			C598.058,297.43,552.878,297.433,507.698,297.433z M377.158,287.43l130.54,0.002c43.439,0,86.876-0.002,130.316-0.011
			c-2.84-52.854-21.599-105.164-53.108-147.841c-23.106-31.381-53.153-58.028-86.895-77.065
			c-36.567-20.858-78.238-33.014-120.844-35.299c-0.014,65.838-0.012,131.678-0.01,197.523L377.158,287.43z"/>
	</g>
	
		<path fill="#FFFFFF" stroke="#017DB4" stroke-width="10" stroke-linecap="round" stroke-linejoin="round" stroke-miterlimit="10" d="
		M70.948,325.44c90.07-0.02,180.13-0.01,270.2-0.01c0,90.5,0,181,0,271.49c-41.57-1.47-82.75-12.49-119.56-31.83
		c-30.7-16.05-58.37-37.86-81.13-63.96C97.848,452.99,72.848,389.7,70.948,325.44z"/>
	
		<path fill="#FFFFFF" stroke="#017DB4" stroke-width="10" stroke-linecap="round" stroke-linejoin="round" stroke-miterlimit="10" d="
		M362.148,325.43c90.37,0,180.74-0.01,271.1,0.01c-1.33,40.32-11.35,80.43-29.6,116.44c-30.41,61.18-84.06,110.38-147.63,135.4
		c-29.83,11.97-61.76,18.55-93.87,19.74C362.158,506.49,362.138,415.96,362.148,325.43z"/>
</g>
</svg>
